<svg xmlns="http://www.w3.org/2000/svg" viewBox="0 0 550.75 563.07"><defs><style>.a{fill:none;stroke:#0019ff;stroke-miterlimit:10;}


</style></defs><path class="a" d="M689.28,840.81h0a182.38,182.38,0,0,1,5.13-43l3-12.37a5.82,5.82,0,0,1,2.83-3.72l2.86-1.59a3.36,3.36,0,0,1,4.9,2.19L712,800l3.16-25.44a2.89,2.89,0,0,1,.14-.58l6.15-16.07a74.65,74.65,0,0,1,12.79-21.64l7.93-9.38a74.82,74.82,0,0,1,13.13-12.2h0A74.88,74.88,0,0,1,788,701.24l7.21-1.11a2.45,2.45,0,0,1,1.55.26l13.16,7.14a20.66,20.66,0,0,1,2.58,1.67h0A19.32,19.32,0,0,1,820,724.51h0A22.45,22.45,0,0,1,815.47,738l-8.22,10.89L797,756h0a10.8,10.8,0,0,1,10.25,10.79v9.28a2.43,2.43,0,0,1-.39,1.33l-18.11,28.21a46.89,46.89,0,0,1-11.85,12.55h0a2.45,2.45,0,0,1-3.9-2v-3.73a2.45,2.45,0,0,0-2.45-2.45H765a43.18,43.18,0,0,1,8.26-18l.74-1-6.16,3.08a15,15,0,0,0-8.28,12.67L759,817.6a2.21,2.21,0,0,1-.17.77l-2,5.21a13.52,13.52,0,0,1-7.77,7.72l-2.53,1a13.51,13.51,0,0,1-9.11.2h0a13.55,13.55,0,0,1-7-5.33l-3.91-5.88a2.46,2.46,0,0,0-4.47,1l-1,6.39a2.42,2.42,0,0,1-.22.69l-5.54,11.45a3.26,3.26,0,0,1-.24.4l-4.71,6.31a11.16,11.16,0,0,1-9,4.51h-.91a11.19,11.19,0,0,1-7.23-2.65h0A11.2,11.2,0,0,1,689.28,840.81Z" transform="translate(-447.77 -428.83)"/><path class="a" d="M654.5,828.42V812.27l6-22.77,28.78-38.89-17.39,38.85-5.39,22v9.06a5.72,5.72,0,0,0,3.68,5.34h0a5.72,5.72,0,0,0,7.66-4.23L683,795.55l6.28-11.15,10.22-17.9,15.7-26.87,8.9-9.5a5.93,5.93,0,0,0,.42-7.61h0a6.23,6.23,0,0,0-7.59-1.91l-1.14.52a6.22,6.22,0,0,1-8.73-4.53h0a6.24,6.24,0,0,1,1.6-5.39l10.51-11.11L740,685.86a6.21,6.21,0,0,0,.95-.83l8.16-9a5.42,5.42,0,0,0,1.41-3.65h0a5.42,5.42,0,0,0-6.85-5.23l-11.59,3.18a5.17,5.17,0,0,0-1.07.42l-28.49,14.8L683,708.26,664.5,735.5l-16,35-7,21,4-29,10-31,8.58-16.41a4.67,4.67,0,0,0-4.14-6.83h0a4.7,4.7,0,0,0-2.84,1L634.5,726.5l-21.08,21.08a79.7,79.7,0,0,0-20.51,35.27l-3.51,12.79a80,80,0,0,0-2.84,21.11h0a80.12,80.12,0,0,0,.8,11.26l2.26,15.86a13.07,13.07,0,0,0,9,10.61h0a13.06,13.06,0,0,0,7,.26l15.29-3.63,5.64-10.61,3-21,7-19,2,22,5,13h0A7.78,7.78,0,0,0,654.5,828.42Z" transform="translate(-447.77 -428.83)"/><path class="a" d="M672.89,676.64,693.5,657.5l-9,16a4.44,4.44,0,0,0,.53,5.08h0a4.44,4.44,0,0,0,7.27-.82l8.18-15.31,11.07-5,9.32-14a16.67,16.67,0,0,0,1.81-14.8l-.39-1.08a16.61,16.61,0,0,0-6.25-8.12l-7.3-5a16.61,16.61,0,0,0-9.43-2.93h0a16.64,16.64,0,0,0-14.73,8.89l-7.41,14.07a16,16,0,0,0-1.11,2.64h0a32.75,32.75,0,0,0,.2,20.73l.24.71L671.71,656a6,6,0,0,0-6.15.35h0a13.94,13.94,0,0,0-6.06,11.49v3a8,8,0,0,0,1,3.92h0A8,8,0,0,0,672.89,676.64Z" transform="translate(-447.77 -428.83)"/><path class="a" d="M791.23,870l-8.47-22.37a28.59,28.59,0,0,1-1.86-10.14h0a28.6,28.6,0,0,1,3.61-13.92l1.55-2.8,10-11a44.2,44.2,0,0,0,5.78-8l14.45-25.62,13.52-15,6.82-8.29a6.17,6.17,0,0,1,4.76-2.24h0a6.16,6.16,0,0,1,6.16,6.16v7.12a6.15,6.15,0,0,1-1.22,3.67l-5.72,7.7a6.38,6.38,0,0,0-1,2L835.5,791.5l1.08,18.73-.08,9.27,5-18,6.07-8.66,15.54-1.92a14.29,14.29,0,0,1,6.61.73l4.69,1.67a14.43,14.43,0,0,1,8.51,8.18h0a14.44,14.44,0,0,1,.53,9.18L882,815.92a14.39,14.39,0,0,1-6.48,8.56l-3.68,2.21A14.48,14.48,0,0,1,869,828l-13.5,4.5-17,3,11,6,.6,13.59-3.6,10.41-6,8-7.68,7.19L820,885.94Z" transform="translate(-447.77 -428.83)"/><path class="a" d="M693.39,560.65l28.63-3a12.18,12.18,0,0,0,3.19-.77l3.31-1.28a12.47,12.47,0,0,0,8-11.64h2a10.89,10.89,0,0,0,9.23-5.11l1.13-1.81a10.82,10.82,0,0,0,1.66-5.77h0a10.88,10.88,0,0,0-4.92-9.11l-7.08-4.64h-12L715.25,525a4.37,4.37,0,0,0-1.13,6.17h0A4.33,4.33,0,0,0,717,533l10.46,1.55L704,539.17l-8.47,3.33-8.09,7.28a5.76,5.76,0,0,0-1.91,4.29h0a5.78,5.78,0,0,0,3,5L690,560A5.78,5.78,0,0,0,693.39,560.65Z" transform="translate(-447.77 -428.83)"/><path class="a" d="M674,572.75l2.57-2.9,13.27-7.94a5.79,5.79,0,0,1,3.86-.75l14.85,2.34.75,1.42a20.72,20.72,0,0,1,2.38,10.5h0a20.78,20.78,0,0,1-1.15,6l-1.4,4a20.6,20.6,0,0,1-3.37,6.08l-7.21,9-6.94,2.58a9.28,9.28,0,0,1-10.27-2.66h0a9.56,9.56,0,0,1-1.32-2l-.92-1.92a9.28,9.28,0,0,1,1.09-9.8l2.86-3.61,8.58-4.79-15.06,2.26h0A4.75,4.75,0,0,1,674,572.75Z" transform="translate(-447.77 -428.83)"/><path class="a" d="M792.5,555.5l4-1a21.38,21.38,0,0,0,12.62-8.89h0A8.4,8.4,0,0,0,810.5,541h0a8.43,8.43,0,0,1,3.53-6.85l6-4.24-13.06,4.2a8.39,8.39,0,0,0-5.57,6l-1.38,5.5a8.36,8.36,0,0,1-1.83,3.5Z" transform="translate(-447.77 -428.83)"/><path class="a" d="M866.5,458.5V484a6.43,6.43,0,0,1-6.43,6.43h0a6.42,6.42,0,0,1-5.8-3.67l-1.14-2.39a17.38,17.38,0,0,0-15.7-9.92h0V460.12a1,1,0,0,1,1.41-.82h0a26.44,26.44,0,0,0,26.25,0Z" transform="translate(-447.77 -428.83)"/><path class="a" d="M882.9,939.08l-9.31-63a8.48,8.48,0,0,1-.09-1.23V854.39a8.49,8.49,0,0,1,1.26-4.43l6.73-10.89a8.44,8.44,0,0,1,7.17-4h0a8.41,8.41,0,0,1,8,5.93l1.55,5,10.84-14.94a4.9,4.9,0,0,1,.95-1l7.14-5.55a4.86,4.86,0,0,1,3-1h2.58a4.88,4.88,0,0,1,4.56,3.16h0a4.87,4.87,0,0,0,7.32,2.29l3.36-2.32h0a30.7,30.7,0,0,0,6.71-19.17v-1a30.88,30.88,0,0,1,.79-6.9l2.34-10.18a31.47,31.47,0,0,1,1.87-5.6l3.45-7.74,11-15L945.5,770.5l2.58-9.47h0A28.17,28.17,0,0,1,970,750.5h0L965.68,749a28.16,28.16,0,0,0-28.53,6.31l-3.21,3.08a9.5,9.5,0,0,1-6.56,2.63h0a9.48,9.48,0,0,1-8.31-4.91l-.71-1.29a9.48,9.48,0,0,1-.19-8.76h0a17.73,17.73,0,0,1,11.47-9.32l.25-.06A8.82,8.82,0,0,0,936,731l1.48-4.35a8.86,8.86,0,0,0,.47-2.84V708.26h0a15.69,15.69,0,0,1,6.68-12.85l9.83-6.91-14.15,4.13a15.69,15.69,0,0,0-11.18,13l-1.69,12.86a8.82,8.82,0,0,1-3.84,6.19l-11,7.32a9.48,9.48,0,0,0-3.3,3.83l-6.91,14.63L891.7,762.13a13,13,0,0,1-5.25,3.43l-5.71,2a12.9,12.9,0,0,1-12.91-2.65h0a12.92,12.92,0,0,1-4.22-9.54V739.9a13,13,0,0,1,1.91-6.76l5.15-8.38a20,20,0,0,1,3.32-4.08l1.36-1.3a20.17,20.17,0,0,1,12.22-5.47h0a20.12,20.12,0,0,0,9.11-3.06l1.24-.78a6,6,0,0,0,2.78-5.19h0A34.81,34.81,0,0,1,904.14,689l4.24-8.79-15.52,16.65a12.2,12.2,0,0,0-3.27,7.77h0a2.59,2.59,0,0,1-2,2.39h0a2.59,2.59,0,0,1-3-1.5l-.32-.76a2.6,2.6,0,0,1-.11-1.72l1.11-3.85A2.55,2.55,0,0,1,886,698l1.95-1.95a2.56,2.56,0,0,0,.72-1.4l.75-4.53a2.61,2.61,0,0,0-.11-1.27l-3-8.72-.61,7a2.58,2.58,0,0,1-1.33,2l-9,4.9a2.52,2.52,0,0,0-1.15,1.3l-3.66,9.14-2,7L863.61,720l-10,6.7a12.32,12.32,0,0,1-9.07,1.9l-2-.38a12.3,12.3,0,0,1-6.83-3.74h0a12.28,12.28,0,0,1-3.28-8.36V703.75a12.75,12.75,0,0,1,.11-1.63l1.58-11.79a12.34,12.34,0,0,1,2-5.2l6.81-10.2a12.34,12.34,0,0,1,1.37-1.69l5.29-5.51A58.31,58.31,0,0,1,865.48,656l7-3.51L884,648.12l-13.13-6.47a7.73,7.73,0,0,1-3.49-3.48l-1.72-3.42a7.73,7.73,0,0,1-.71-4.73h0a7.79,7.79,0,0,1,3.65-5.36l1.21-.72a8.15,8.15,0,0,1,1.53-.71l8.2-2.73,4.46-6.17.47-30.36a19.63,19.63,0,0,1,2.07-8.47l1.91-3.82a19.36,19.36,0,0,1,2.68-4l0-.06a19.62,19.62,0,0,1,14.18-6.79l2.74-.1c.46,0,.93,0,1.4,0l7.93.38h2a17.07,17.07,0,0,0,9.42-2.83l7.66-5.08a16.65,16.65,0,0,0,1.95-1.51L956.5,535.5l23-26,11-10-14.21-2.66a7.22,7.22,0,0,1-3.21-1.48l-.85-.67A7.32,7.32,0,0,1,969.5,489h0a7.27,7.27,0,0,1,4-6.51l.43-.22a7.24,7.24,0,0,1,3.26-.77h6.62l3.4-1.37a16.31,16.31,0,0,0,5.69-3.87l.62-.66a16.26,16.26,0,0,0,4-7.25h0a16.34,16.34,0,0,0,0-7.71l-1.09-4.55a15,15,0,0,0-.68-2.19l-3.31-8.4-1-5-1-8-2.43,16.22a11.77,11.77,0,0,1-3.26,6.51h0a11.76,11.76,0,0,1-7.81,3.49l-14.09.67a12,12,0,0,1-4.67-.73l-7.89-3a11.76,11.76,0,0,0-4.11-.74h-8.76a30.84,30.84,0,0,0-13.06,2.9l-3.6,1.68a19.12,19.12,0,0,0-9.25,9.27v0a19,19,0,0,0-1.42,11.71h0a19.12,19.12,0,0,0,6.91,11.32l12.17,9.61a19.12,19.12,0,0,1,2.37,2.22l3.48,3.86a17,17,0,0,1,4.37,11.56l-.05,5.89a17,17,0,0,1-2.62,9l-5.67,9a17.36,17.36,0,0,1-4,4.37l-1.39,1.07A17.05,17.05,0,0,1,913.87,552h0a17,17,0,0,1-9.51-3.9l-1.86-1.55-7-7-5-8-1,16-2.29,2.29a19.54,19.54,0,0,1-3.78,3l-5.7,3.42a19.61,19.61,0,0,0-9.06,12.57h0c-.11.51-.21,1-.28,1.56L866.62,583c-.08.59-.19,1.18-.32,1.76L865,590.25a19.54,19.54,0,0,1-1.55,4.32l-3,5.94a10.72,10.72,0,0,1-2.72,3.41l-4.43,3.65a10.63,10.63,0,0,1-3.07,1.75l-4.86,1.78a10.48,10.48,0,0,1-4,.63l-2.82-.09a10.51,10.51,0,0,1-7.07-3.07h0a10.49,10.49,0,0,1-3.07-7.41v-2.67a10.57,10.57,0,0,1,.33-2.62l1.84-7.13,3.83-4.24,6-7,2-6,1-10-5,10-8.44,4.64a41.65,41.65,0,0,0-15.86,15.45h0a41.14,41.14,0,0,0-2.91,6.06l-1.23,3.18a15.14,15.14,0,0,1-9.34,8.93h0a15.1,15.1,0,0,0-8.1,6.43l-5.12,8.31L780.9,640l-15.44,13.88a6.49,6.49,0,0,1-6.67,1.23h0a6.48,6.48,0,0,1-4.15-6.05v-8.94a6.49,6.49,0,0,1,.29-1.9h0a34.37,34.37,0,0,1,13.72-18.48l12.25-8.2-11.4,4-4.42.4a4.22,4.22,0,0,1-4.36-5.62h0A52.52,52.52,0,0,1,768.53,596l1.72-2.24A52.89,52.89,0,0,1,779,584.8l16.53-13.3-11.86,4.75a52.37,52.37,0,0,0-14.78,9h0a53,53,0,0,0-7.35,7.78l-5,6.53a52.92,52.92,0,0,1-4,4.6l-3.62,3.73a12,12,0,0,1-8.62,3.64h-4.6a12,12,0,0,1-4.16-.74h0a12,12,0,0,1-7.85-11.27V584.4a12,12,0,0,1,1.18-5.19l3.12-6.52a12,12,0,0,1,4.54-5l7.09-4.37a12.1,12.1,0,0,1,6.3-1.78h5.93a12.69,12.69,0,0,0,12.64-11.63h0c0-.25,0-.49.08-.74l1.84-12.85a11.7,11.7,0,0,1,.32-1.54h0a28.38,28.38,0,0,1,11.62-16.13l12.17-8.11-18,4h-2.84a6.86,6.86,0,0,1-6.58-5h0a6.82,6.82,0,0,1,.09-4.05L765,500a6.86,6.86,0,0,1,1.65-2.67l8.92-8.92c.62-.62,1.22-1.29,1.79-2h0a26.8,26.8,0,0,0,5.46-22.56L780.9,455l-2,7.4a26.78,26.78,0,0,1-10,14.71l-4.95,3.63a26.73,26.73,0,0,1-5.22,3l-15.2,6.56a5.25,5.25,0,0,1-4.65-.23h0a5.27,5.27,0,0,1-1-8.48l3.3-3.05h0a33.93,33.93,0,0,0-20.83,7.14l-5.11,4-5.7,9.29h0v4.8a36.5,36.5,0,0,1-8,22.81h0a11.34,11.34,0,0,1-5.41-14.85l1.41-3.15-10.81,9.21a29,29,0,0,0-6.15,7.32h0a29,29,0,0,0-4,14.71v9a5.55,5.55,0,0,1-3,4.9h0a5.54,5.54,0,0,1-7.56-2.44l-2.5-5-4,11-5,5.75a24.41,24.41,0,0,0-5.38,10.48h0a24.49,24.49,0,0,0,4.2,20.23L659.5,602l2.72,6.48a16.73,16.73,0,0,1,1.28,6.4h0a16.54,16.54,0,0,1-7.13,13.61l-6.87,4.76h0a50.31,50.31,0,0,0-18.1,32.46l-.9,6.84,4.37-9a14.83,14.83,0,0,1,13.34-8.34h0a1.29,1.29,0,0,1,1.29,1.29v15l-4,10.8a24.42,24.42,0,0,0-1.52,8.5v7a24.56,24.56,0,0,1-7.5,17.66h0l-18,7-7-9v-17l-6,32-9.87,16.67a10.86,10.86,0,0,1-9.35,5.33h0a10.87,10.87,0,0,1-8.88-4.61l-.84-1.19a10.86,10.86,0,0,1,0-12.43l4-5.77h0a29.41,29.41,0,0,0,12-17.67l1.67-7.33-.84-12.14-10.14,18.9L572.2,720l-12,12.71a6.4,6.4,0,0,0-1.74,4.39v5.27a6.4,6.4,0,0,1-3.62,5.77h0a6.41,6.41,0,0,1-8-2.07l-5.36-7.57,4.43-17.88a6.62,6.62,0,0,1,.43-1.2l2.84-6a6.42,6.42,0,0,1,2.38-2.68l14.71-9.26,14.36-12.14,9.29-14.72,4.56-16.14.51-13.65-12.52,18.22a9,9,0,0,1-7.43,3.91h0a9,9,0,0,1-8.44-5.84l-1.24-3.31a8.85,8.85,0,0,1-.43-4.78l3.22-17.71a8.89,8.89,0,0,1,1.37-3.39l13.64-20.45,18.32-15,.2-.22a58.32,58.32,0,0,0,14.92-32.63h0a4.71,4.71,0,0,0-2.2-4.54l-2.25-1.38a5.2,5.2,0,0,1-2.16-6.24h0a6.14,6.14,0,0,1,5.75-4h7.58a.5.5,0,0,0,.29-.09h0a14.68,14.68,0,0,0,6.31-13l-.3-4.51-.21-3.06A27.35,27.35,0,0,1,634,509.74l3.51-5.24,15-7-7.32.32a27.32,27.32,0,0,0-23,14.57h0a27.39,27.39,0,0,0-3.08,10.87l-.44,6.4a.52.52,0,0,1-.16.34l-9.89,9a.53.53,0,0,1-.22.12l-4.15,1A15.28,15.28,0,0,0,592.8,553h0a8.92,8.92,0,0,0,.72,4.81l2.15,4.69a8.82,8.82,0,0,1-.28,7.88h0a8.8,8.8,0,0,1-11.31,3.83h0a3.5,3.5,0,0,1-2-2.38l-4-16.32-3.28-2.73a19.51,19.51,0,0,1-7-13.48l-.32-4.22a19.41,19.41,0,0,1,1.85-9.92h0A19.49,19.49,0,0,1,581.14,515l5.42-1.71-7.62-1.9a13.93,13.93,0,0,1-9.86-9.12l-2.58-7.73-5.22,7a8.43,8.43,0,0,1-9.68,2.85h0a8.42,8.42,0,0,1-5.51-7.91v-5a25.2,25.2,0,0,1,2-9.84l3-7-7.91,8.81a25.14,25.14,0,0,0-6.45,16.8h0a7.41,7.41,0,0,1-2.12,5.2l-1.54,1.56a7.41,7.41,0,0,1-10.83-.27h0a7.4,7.4,0,0,1-1.57-7l3.84-13.06,7.16-12L518,491.62a33.43,33.43,0,0,0-6.88,15.57l-.53,3.28a33.5,33.5,0,0,0,5.28,24h0a10.51,10.51,0,0,0,8.72,4.64h11a10.5,10.5,0,0,1,8.51,4.35h0a10.49,10.49,0,0,1,2,6.16V551a10.51,10.51,0,0,0,3.2,7.56l8.56,8.27c.43.42.88.82,1.35,1.21l5.92,4.84a22,22,0,0,1,6.48,8.84h0a21.87,21.87,0,0,1,1.51,9.83l-.19,2.45a22,22,0,0,1-3.35,10.08l-9.2,14.49h0a43.32,43.32,0,0,0-14.28,32.15v29.4l-6.47,23.07a16.38,16.38,0,0,1-5.47,8.32l-11,8.87a9.71,9.71,0,0,1-8.75,1.78h0a9.67,9.67,0,0,1-6.89-7.8l-1.23-7.76a16.39,16.39,0,0,1,1.44-9.82h0A25.78,25.78,0,0,0,510,681.19h0a25.76,25.76,0,0,0-5.29-11.74l-7.19-9,2.41,12.64a25.8,25.8,0,0,1-1.14,13.73l-4.89,13.23h0a23.8,23.8,0,0,0-2.2,17.19l2.2,8.82,6.52,12.39,2.54,12L499.56,761h0a29.76,29.76,0,0,1-14.85-14.55l-3.74-8v5.71a70.47,70.47,0,0,0,7.61,31.84h0l.77,8.7a10,10,0,0,1-.31,3.44l-1.45,5.33a9.85,9.85,0,0,1-4.69,6h0a9.83,9.83,0,0,1-10.31-.48l-4.09-2.81-6-14.72V754.83L454.38,775c-.29.73-.55,1.46-.77,2.21l-4.26,14.16a25.62,25.62,0,0,0-.56,12.48h0a25.54,25.54,0,0,0,8.52,14.38l1,.84a10.46,10.46,0,0,1,3.66,8.82l-.35,4.25a10.18,10.18,0,0,1-.59,2.72l-3.12,8.61A36.05,36.05,0,0,0,456.13,861h0a10.41,10.41,0,0,1-.43,4.86l-1.93,5.76a61.39,61.39,0,0,0-.54,37.47h0a61.34,61.34,0,0,1,2.64,16.13l.49,16.75a62.72,62.72,0,0,1-.34,8.45l-2.08,19S495.5,929.5,509.5,922.5h0a4.22,4.22,0,0,1-3.73-7.44c22.92-16.53,62.92-41.44,96.84-42.29h0a3.93,3.93,0,0,1,.83-7.61l29.63-3.53a3.93,3.93,0,0,1,2.55,7.23l-2.72,1.71c-1.77,1.12-3.57,2.17-5.4,3.17l-22.36,12.2,42.8-10.37a99.61,99.61,0,0,1,23.45-2.8h0a99.63,99.63,0,0,1,42.74,9.63l10.73,5.1-12.94-10.76a10.18,10.18,0,0,1-3.12-11.15h0a10.19,10.19,0,0,1,9.63-6.86h8a10.15,10.15,0,0,1,4,.8L750.5,868l27.33,17.21a7.46,7.46,0,0,1,1.92,1.75l13.91,17.87a7.53,7.53,0,0,1,.87,7.83h0a7.51,7.51,0,0,1-6.81,4.32H767.84L796,929.5l24,26.37-12.52-24a10.83,10.83,0,0,1-1.23-5v-11.5a10.85,10.85,0,0,1,10.84-10.84h0a10.88,10.88,0,0,1,5.43,1.45l19.13,11,13.9,16.11a8.49,8.49,0,0,1,2.06,5.55h0a8.5,8.5,0,0,1-7,8.35l-6.09,1.11a8.34,8.34,0,0,1-4.06-.25l-14-4.37,30.66,19.68a8.6,8.6,0,0,1,.86.63l17.82,14.86L884,988.81l-13-31a6,6,0,0,1-.47-2.33V952a6,6,0,0,1,6.23-6h0A6,6,0,0,0,882.9,939.08Z" transform="translate(-447.77 -428.83)"/><path class="a" d="M828.61,674.33l3.82-.87,12.07-14,5.93-8.59a13.61,13.61,0,0,0,2.09-4.87l1.36-6.57a13.39,13.39,0,0,0-.1-5.91h0a13.4,13.4,0,0,0-9.1-9.62L839,622.22h-4.35a20.47,20.47,0,0,1-9.62-2.4h0a10.42,10.42,0,0,0-10,.13h0a8.89,8.89,0,0,0-4.53,7.75h0a8.88,8.88,0,0,0,.73,3.52l1,2.25a8.89,8.89,0,0,0,4.26,4.48l3.54,1.72-5.5,12.83-.84,7.57a11.9,11.9,0,0,0,0,2.86l.13,1a12.16,12.16,0,0,0,5.33,8.62h0A12.14,12.14,0,0,0,828.61,674.33Z" transform="translate(-447.77 -428.83)"/><path class="a" d="M750.5,696.55l16.07-23.82a129.12,129.12,0,0,1,20.81-23.89l2.47-2.22,5.34-1.48a7.89,7.89,0,0,1,4.59.11h0a7.93,7.93,0,0,1,5.19,5.56l.35,1.38a7.9,7.9,0,0,1-1.19,6.5h0a7.91,7.91,0,0,0-.64,8l2.73,5.66.83,2.77a7.54,7.54,0,0,1-1.56,7.1h0a7.52,7.52,0,0,1-5.06,2.52l-9.67.75-.58,0H777a7.26,7.26,0,0,0-.93.06l-6.09.76a7.56,7.56,0,0,0-2.73.89Z" transform="translate(-447.77 -428.83)"/><path class="a" d="M898.31,822.5h0a8.86,8.86,0,0,0,5-1.56l.13-.09a8.83,8.83,0,0,0,3.81-7.25v-2.3a8.81,8.81,0,0,0-4.69-7.78l-.06,0a8.81,8.81,0,0,0-8.26,0l-.07,0a8.8,8.8,0,0,0-4.68,7.78v2.38h0A8.82,8.82,0,0,0,898.31,822.5Z" transform="translate(-447.77 -428.83)"/><path class="a" d="M967.5,738.5v-4.39a8.79,8.79,0,0,1,7-8.61h0l7.76,1.29a7.48,7.48,0,0,0,7-2.6h0a7.45,7.45,0,0,0,1.62-6.14l-1.37-7.55-8-9,.9,13.53a7.35,7.35,0,0,1-.37,2.87l-1.1,3.3a7.34,7.34,0,0,1-1.29,2.36Z" transform="translate(-447.77 -428.83)"/><path class="a" d="M571.2,771.34h0A43.48,43.48,0,0,0,565,795.51l.77,18.8A137.63,137.63,0,0,0,571.4,848l1.54,5.2a5.2,5.2,0,0,1-.28,3.68l-2.8,6a5.2,5.2,0,0,1-7.39,2.24h0a5.23,5.23,0,0,1-1.61-1.53l-5.74-8.47L550,836.58l-2.34,15.07a5.49,5.49,0,0,0,0,.7V865a4.88,4.88,0,0,1-.11,1l-.61,2.68a4.58,4.58,0,0,1-4.47,3.58h0a4.66,4.66,0,0,1-1.77-.35l-6.73-2.8a4.62,4.62,0,0,1-2.2-1.92l-5.59-9.6a4.58,4.58,0,0,1-.63-2.31V846.7a4.55,4.55,0,0,1,.21-1.37l4.63-14.76,1.16-3a131,131,0,0,0,5-15.73l.15-.62a130.7,130.7,0,0,1,7.9-22.73h0l.14-.34A60.59,60.59,0,0,1,560.91,765l.22-.19a5.6,5.6,0,0,1,.79-.59l1.29-.8a5.78,5.78,0,0,1,7.15.87h0A5.79,5.79,0,0,1,571.2,771.34Z" transform="translate(-447.77 -428.83)"/><path class="a" d="M499.56,761l2.43,7a24.69,24.69,0,0,0,1.2,2.86h0a24.47,24.47,0,0,1,2.56,10.92v4.1A23.54,23.54,0,0,1,502,798.67h0a15.24,15.24,0,0,0-2.44,8.29h0a8.43,8.43,0,0,0,5.05,7.73h0A8.45,8.45,0,0,0,514.82,812l2.73-3.72a8.46,8.46,0,0,0,1.63-5V786.42a62.36,62.36,0,0,1,6.32-27.36h0l4.84-5.64L526,773.8a6.42,6.42,0,0,0,.58,4.3l.08.15a6.43,6.43,0,0,0,9.87,2h0a6.5,6.5,0,0,0,2.15-3.64l.43-2.14a120.14,120.14,0,0,0,2.41-23.93h0v-12" transform="translate(-447.77 -428.83)"/><path class="a" d="M482.9,799.51l-1.93,13,1.93,10,2.93,8.13a6.65,6.65,0,0,1,.21,3.8l-2,8.2a6.83,6.83,0,0,1-1.19,2.49l-4.06,5.28a6.66,6.66,0,0,1-3.13,2.25h0a6.64,6.64,0,0,1-8.65-5l-.48-2.46a6.74,6.74,0,0,1,0-2.37l1.85-11a6.5,6.5,0,0,1,.39-1.37l3.19-8h0a33.66,33.66,0,0,0-12-16.25l-.34-.25h0a23.21,23.21,0,0,1-4.13-14.39l.05-1.11,7-35.67" transform="translate(-447.77 -428.83)"/><path class="a" d="M497.06,836,486.8,860.28a6.55,6.55,0,0,0-.43,1.45l-5.3,30.8a6.84,6.84,0,0,0-.1,1.11v10.88a6.61,6.61,0,0,0,1.19,3.77l.61.87a6.57,6.57,0,0,0,9.09,1.64h0A6.63,6.63,0,0,0,494.5,907l1.68-6.55,3.38-14.54,1.28,7a4.35,4.35,0,0,0,4.27,3.56h0a4.42,4.42,0,0,0,2.24-.62h0a15.79,15.79,0,0,0,6.56-7.75l.76-1.93a19.38,19.38,0,0,0,1.17-9.62l-1.22-9.15a15.22,15.22,0,0,1-.13-1.78l-.26-19.11a14.44,14.44,0,0,1,.78-4.87h0a3.22,3.22,0,0,0-5.51-3.13h0l-6,10,1-12h0A4,4,0,0,0,497.06,836Z" transform="translate(-447.77 -428.83)"/></svg>