<svg xmlns="http://www.w3.org/2000/svg" viewBox="0 0 523.34 767.43"><defs><style>.a{fill:none;stroke:red;stroke-miterlimit:10;}
    path, line{
         fill: blue;
  stroke-width: 2px;
 stroke-dasharray: 500;
  animation: dash 5s infinite linear;
}

@keyframes dash {
  to {
    stroke-dashoffset: 1000;
  }
}


</style></defs>

<path class="a" d="M819.73,1356l1,0A1.27,1.27,0,0,0,819.73,1356Zm-286.83.46,1,0A1.27,1.27,0,0,0,532.9,1356.49Z" transform="translate(-415.15 -845.07)"/>
<path class="a" d="M871.14,1355.69v2.51a4.6,4.6,0,0,1-.32,1.68l-5.5,13.79a4.2,4.2,0,0,0-.26.92l-6.86,40.16a4.62,4.62,0,0,0-.07.65l-1,40.29a4.71,4.71,0,0,0,0,.75l2.9,20.31a4.75,4.75,0,0,0,.14.63l2.72,9.24a22,22,0,0,1-.78,14.63l-6.8,16.44a22.46,22.46,0,0,1-2.83,4.92,22.83,22.83,0,0,1-4,4,22.19,22.19,0,0,1-9.9,4.34l-10,1.66a22,22,0,0,0-4.84,1.4,45.57,45.57,0,0,0-16.61,11.84l-1.05,1.18-15.2,16.15c-.53.57-1.09,1.11-1.67,1.63l-5.5,5a28.24,28.24,0,0,1-8.15,5.12l-9.16,3.77a28.2,28.2,0,0,0-6.2,3.53l-13.12,9.84-14.27,11a41.28,41.28,0,0,1-37.36,6.69l-5.33-1.65-.26-.09-.45-.15-1-.34A79.62,79.62,0,0,0,678.3,1605a71.37,71.37,0,0,0-13.09,3l-1,.34-.45.15-.26.09-5.33,1.65a41.26,41.26,0,0,1-37.36-6.69l-14.27-11-13.12-9.84a28.2,28.2,0,0,0-6.2-3.53l-9.16-3.77a28.27,28.27,0,0,1-8.15-5.13l-5.5-5c-.58-.52-1.14-1.06-1.67-1.63l-15.2-16.15-1-1.18a45.57,45.57,0,0,0-16.61-11.84,22,22,0,0,0-4.84-1.4l-10-1.66a22.19,22.19,0,0,1-9.9-4.34,22.83,22.83,0,0,1-4-4,22.46,22.46,0,0,1-2.83-4.92l-6.8-16.44a22,22,0,0,1-.78-14.63l2.72-9.24a4.75,4.75,0,0,0,.14-.63l2.9-20.31a4.71,4.71,0,0,0,0-.75l-1-40.29a4.62,4.62,0,0,0-.07-.65L488.58,1375a4.2,4.2,0,0,0-.26-.92l-5.5-13.79a4.6,4.6,0,0,1-.32-1.68v-2.51a4.59,4.59,0,0,1,.63-2.3l15.83,5.76a35.65,35.65,0,0,0,5.19,1.45l2.41.48a35.61,35.61,0,0,0,26.2-4.94l.14-.08,1,0a1.28,1.28,0,0,1,.78.93l7.38,34.18A113.84,113.84,0,0,0,565.49,1440l4,4.84a14.41,14.41,0,0,1,3.26,8.42l.41,8.16v.27a14.39,14.39,0,0,0,7.4,11.86l3.54,2,.5.28,0,0,3.79,2.09a4.86,4.86,0,0,1,1.16.91l2.9,3.2,3.79,4.17.12.14a6.64,6.64,0,0,0,7.74,2.06l.26-.11h0l.31,0a4.54,4.54,0,0,1,2.93,1.55l3.68,4.3a4.54,4.54,0,0,0,2.93,1.55l.76.08h0l3.25.36,1.89.21a4.43,4.43,0,0,1,2.32,1l3.59,2.87a3.87,3.87,0,0,1,.7.7l1.59,2a4.45,4.45,0,0,0,1.66,1.3l3.58,2.8a2.46,2.46,0,0,0,2.35.38l3.36-1.2a2.24,2.24,0,0,1,1.49-.05,4.56,4.56,0,0,0,2.11.15l3.18-.53a2.43,2.43,0,0,1,1.38.16l3.36,1.58a2.44,2.44,0,0,0,1.53.19l4.77-.94.06,0,1-.19a2.64,2.64,0,0,1,.84,0,4.45,4.45,0,0,1,1.23.41l3.18,1.59a7,7,0,0,0,4.32.64l-.81.14,5.16-.69,3.58.41a3.47,3.47,0,0,1,.56.11,4.44,4.44,0,0,1,1.66-.54l3.58-.41,5.16.69-.58-.1a7,7,0,0,0,4.09-.68l3.18-1.59a4.43,4.43,0,0,1,1.23-.4,2.17,2.17,0,0,1,.84,0l1,.2,4.77,1a2.51,2.51,0,0,0,1.53-.19l3.36-1.58a2.43,2.43,0,0,1,1.38-.17l3.18.53a4.43,4.43,0,0,0,2.11-.15,2.38,2.38,0,0,1,1.49,0l3.36,1.2a2.45,2.45,0,0,0,2.35-.37l3.58-2.81a4.45,4.45,0,0,0,1.66-1.3l1.59-2a3.87,3.87,0,0,1,.7-.7l3.59-2.87a4.43,4.43,0,0,1,2.32-1l1.88-.21h0l3.25-.36h0l.76-.08a4.54,4.54,0,0,0,2.93-1.55l3.68-4.3a4.54,4.54,0,0,1,2.93-1.55l.31,0h0l.26.11a6.63,6.63,0,0,0,7.74-2l.12-.14,3.79-4.18,2.9-3.2a4.86,4.86,0,0,1,1.16-.91l3.79-2.09,0,0,.5-.28,3.54-2a14.41,14.41,0,0,0,7.4-11.86V1461l.41-8.16a14.41,14.41,0,0,1,3.26-8.42l4-4.84a113.84,113.84,0,0,0,23.42-48.42L819,1357a1.28,1.28,0,0,1,.78-.93l1,0,.14.08a35.61,35.61,0,0,0,26.2,4.94l2.41-.48a35.65,35.65,0,0,0,5.19-1.45l15.83-5.76A4.59,4.59,0,0,1,871.14,1355.69Z" transform="translate(-415.15 -845.07)"/>
<path class="a" d="M672.13,1508.57l-5.16.69.81-.14.14,0H668l2.86-.48h0A4.68,4.68,0,0,1,672.13,1508.57Z" transform="translate(-415.15 -845.07)"/>
<path class="a" d="M521.5,1364.5" transform="translate(-415.15 -845.07)"/>
<path class="a" d="M564.5,1507.82h0a91.9,91.9,0,0,1-21.67-35.69l-10.31-31.46a90.49,90.49,0,0,1-3.15-12.56l-9.87-55.61" transform="translate(-415.15 -845.07)"/>
<path class="a" d="M533.91,1356.46l10.85-.29h.14a20.63,20.63,0,0,1,14.42,6.76,19.85,19.85,0,0,1,2.5,3.4l8.92,15.17a20.54,20.54,0,0,1,2.44,6.41l1.22,6.08a1.45,1.45,0,0,1-.15,1l-6.75,12.32a8.12,8.12,0,0,0,.42,8.5,7.61,7.61,0,0,0,.91,1.06l3.67,3.67" transform="translate(-415.15 -845.07)"/>
<line class="a" x1="117.75" y1="511.42" x2="117.35" y2="511.43"/>
<line class="a" x1="215.29" y1="589.5" x2="215.28" y2="589.49"/>
<line class="a" x1="308.75" y1="599.53" x2="308.65" y2="599.53"/>
<path class="a" d="M453.5,1259.5l-.79-.52a17.25,17.25,0,0,1-7.12-10.11,36.83,36.83,0,0,1-1.09-8.87v-18.22a22.06,22.06,0,0,0-5.45-14.51l-1.49-1.7-.11-.15A69.48,69.48,0,0,1,426,1176.88l-6.15-39c-.25-1.59-.45-3.19-.59-4.8l-3.38-38.87a69.31,69.31,0,0,1-.17-9.45l1.25-25.08a69.37,69.37,0,0,1,3.94-19.8l13.54-38a69,69,0,0,1,8.06-15.82l22.41-32.77q6.76-9.9,14.47-19.08t16.27-17.56a243.19,243.19,0,0,1,62.73-44.37l1.31-.65a243.74,243.74,0,0,1,51.66-18.5l1.06-.25a243.87,243.87,0,0,1,46.73-6.31L676,846a1.35,1.35,0,0,1,.56.1" transform="translate(-415.15 -845.07)"/>
<path class="a" d="M473.5,1190.5l-2.7,6.07c-.87,2-1.67,3.94-2.4,5.94a92.84,92.84,0,0,0-4.3,16.37l-.08.5c-.35,2.08-.76,4.15-1.25,6.2l-4.27,17.92-2.85,10.69a29.85,29.85,0,0,1-3.51,8.09L439.81,1282a9.54,9.54,0,0,0-1.45,5.06,29.52,29.52,0,0,0,.12,14.85l.5,1.89a29.82,29.82,0,0,0,5.1,10.39l9.42,12.31,26,26,3.63,1.32" transform="translate(-415.15 -845.07)"/>
<path class="a" d="M649.73,1470.35l-1.28-1.63a3.91,3.91,0,0,1-.81-2.76l.21-2.31A9.8,9.8,0,0,0,649.73,1470.35Z" transform="translate(-415.15 -845.07)"/>
<path class="a" d="M660.34,1477.67l8.19-.51A16,16,0,0,1,660.34,1477.67Z" transform="translate(-415.15 -845.07)"/>
<path class="a" d="M677,1440.34v32.16a1.2,1.2,0,0,1-.07.42,1.37,1.37,0,0,1-.29-.85v-32.16a8.6,8.6,0,0,1,.14-1.52A9,9,0,0,1,677,1440.34Z" transform="translate(-415.15 -845.07)"/>
<path class="a" d="M649.73,1470.35l-1.28-1.63a3.91,3.91,0,0,1-.81-2.76l.21-2.31A9.8,9.8,0,0,0,649.73,1470.35Z" transform="translate(-415.15 -845.07)"/>
<path class="a" d="M630.47,1434l0,.58-.64,9.61-1.25,19a1.49,1.49,0,0,1-.47,1l-1.43,1.27a1.34,1.34,0,0,1-.31.22l-7,3.47a4.19,4.19,0,0,1-5.14-1.13l-2.5-3.13a1.44,1.44,0,0,1-.3-.68l-.51-3.48-.19-1.26-1.22-8.34a1.36,1.36,0,0,1,0-.2v-16.17a1.19,1.19,0,0,1,0-.33l1.1-4.58.12-.5.54-2.24a1.43,1.43,0,0,1,.57-.83l3.73-2.64a6.53,6.53,0,0,1,9,1.42l1.54,2,.25.33.21.3,3.63,5.45A1.38,1.38,0,0,1,630.47,1434Z" transform="translate(-415.15 -845.07)"/>
<path class="a" d="M609.52,1451l1.22,8.34a1.4,1.4,0,0,1-1,1.54h0l-5.61,1.42-.61.15h-.92a1.45,1.45,0,0,1-.47-.08l-.11,0-.11-.05a1.48,1.48,0,0,1-.37-.29,1.41,1.41,0,0,1-.34-.62l-.24-.92a1.13,1.13,0,0,0,0-.18l-.43-1.69s0,0,0-.05l0-.21-1-15.79a.86.86,0,0,1,0-.16l.85-15.16.07-1.26v-.07l0-.68a1.41,1.41,0,0,1,.68-1.14l.86-.53a7,7,0,0,1,6.94-.17,1.46,1.46,0,0,1,.7.94l1.12,4.91-.12.5-1.1,4.58a1.19,1.19,0,0,0,0,.33v16.17A1.36,1.36,0,0,0,609.52,1451Z" transform="translate(-415.15 -845.07)"/>
<path class="a" d="M609.77,1460.93s0,0-.08,0l-5.52,1.42-.27.07a1.34,1.34,0,0,1-.35,0l.61-.15Z" transform="translate(-415.15 -845.07)"/>
<path class="a" d="M599.3,1462.06l-2.42-.48a1.43,1.43,0,0,1-.67-.34l-2.37-2.11a1.38,1.38,0,0,1-.44-.74l-.34-1.46-2.63-11.33,0-.2-1.29-15.7a1.35,1.35,0,0,1,0-.4l.91-4.54.31-1.53v0l0-.12a1.49,1.49,0,0,1,.61-.9,4.13,4.13,0,0,1,4.87.22l2.25,1.8a1.44,1.44,0,0,0,.89.31,1.42,1.42,0,0,1,1.42,1.43v.07l-.07,1.26-.85,15.16a.86.86,0,0,0,0,.16l1,15.79,0,.21s0,0,0,.05l.43,1.69a1.13,1.13,0,0,1,0,.18A1.43,1.43,0,0,1,599.3,1462.06Z" transform="translate(-415.15 -845.07)"/>
<path class="a" d="M592.83,1458.09a1.43,1.43,0,0,1-1.27.58l-1.85-.15a1.45,1.45,0,0,1-.41-.1l-4.38-1.75a1.44,1.44,0,0,1-.67-.55l-2.55-4-.13-.24a.49.49,0,0,1,0-.11l-1.84-5.94v0l-1.13-3.64a1.52,1.52,0,0,1-.06-.42v-15a1.43,1.43,0,0,1,.15-.64l1.89-3.75.28-.56a1.6,1.6,0,0,1,.66-.6l1.57-.69A6.14,6.14,0,0,1,590,1422a1.45,1.45,0,0,1,.39,1,1.07,1.07,0,0,1,0,.25v0l-.31,1.53-.91,4.54a1.35,1.35,0,0,0,0,.4l1.29,15.7,0,.2,2.63,11.33A1.41,1.41,0,0,1,592.83,1458.09Z" transform="translate(-415.15 -845.07)"/>
<path class="a" d="M581,1421.5l-.2.39-.28.56-1.89,3.75a1.43,1.43,0,0,0-.15.64v15a1.52,1.52,0,0,0,.06.42l1.13,3.64v0l-3,1.89a1.11,1.11,0,0,1-.29.14h0a1.41,1.41,0,0,1-1.64-.55l-2.05-3.09a16.27,16.27,0,0,1-2.73-9,16,16,0,0,1,.3-3.09l2.09-10.84a1.44,1.44,0,0,1,.93-1.07l3.31-1.15a1.45,1.45,0,0,1,1.29.18Z" transform="translate(-415.15 -845.07)"/>
<path class="a" d="M677,1480.41v18.87l-4.2,8a2.54,2.54,0,0,1-1.92,1.31h0l-2.84.48a2.47,2.47,0,0,1-1.91-.48l-6.62-5.1-3.86-8.68a2.57,2.57,0,0,1-.19-.67l-2-13.65,3-1.23,3.87-1.6a16,16,0,0,0,8.19-.51l5.31.82Z" transform="translate(-415.15 -845.07)"/>
<path class="a" d="M668.53,1477.16a16,16,0,0,1-8.19.51Z" transform="translate(-415.15 -845.07)"/>
<path class="a" d="M672.13,1508.57l-5.16.69.81-.14.14,0H668l2.86-.48h0A4.68,4.68,0,0,1,672.13,1508.57Z" transform="translate(-415.15 -845.07)"/>
<path class="a" d="M659.5,1503.5l-.45,1.5a2.44,2.44,0,0,1-1.82,1.7l-.06,0-4.77.94a2.44,2.44,0,0,1-1.53-.19l-3.36-1.58a2.45,2.45,0,0,1-1-.86l-2.13-3.19h0L641.8,1498a2.52,2.52,0,0,1-.39-1l-1.92-11.77v-8.53h10a9.5,9.5,0,0,1,4.9,1.36l2.05,1.24a4.15,4.15,0,0,0-2.56,3.83,3.83,3.83,0,0,0,0,.47.41.41,0,0,0,0,.11l1.5,10.47a2.57,2.57,0,0,0,.19.67Z" transform="translate(-415.15 -845.07)"/>
<path class="a" d="M644.38,1501.83h0l-3.8,3.65a2.54,2.54,0,0,1-.87.54l-.36.13-3.36,1.2a2.46,2.46,0,0,1-2.35-.38l-3.58-2.8-1.66-1.3-1.59-2-.78-2.69a23.26,23.26,0,0,0-4.9-8.89,4.8,4.8,0,0,1-1.19-3l-.56-17.3,7-3.47,3.08,2.59a13.54,13.54,0,0,0,2.34,4.38l.52.67a1.57,1.57,0,0,0,.51.41l2.44,1.22a17.19,17.19,0,0,0,3.73,1.36h0l.53.45v8.53l1.92,11.77a2.52,2.52,0,0,0,.39,1Z" transform="translate(-415.15 -845.07)"/>
<path class="a" d="M621.42,1492.61a2.71,2.71,0,0,1-.17,1.16l-.34.83a2.51,2.51,0,0,1-2.6,1.55l-3.25-.36h0a2.43,2.43,0,0,1-1.35-.61l-4.81-4.25a6.64,6.64,0,0,1-1.79-2.58l-.39-1-.87-2.26v0l-1.19-3.1a32.52,32.52,0,0,1-1.07-19.44,1.34,1.34,0,0,0,.35,0l.27-.07,5.52-1.42s.06,0,.08,0h0l1.14-.28.51,3.48a1.44,1.44,0,0,0,.3.68l2.5,3.13a4.19,4.19,0,0,0,5.14,1.13l.56,17.3,0,.75a2.56,2.56,0,0,0,.62,1.58h0a2.55,2.55,0,0,1,.61,1.44Z" transform="translate(-415.15 -845.07)"/>
<path class="a" d="M609.77,1460.93s0,0-.08,0l-5.52,1.42-.27.07a1.34,1.34,0,0,1-.35,0l.61-.15Z" transform="translate(-415.15 -845.07)"/><path class="a" d="M603.9,1462.45a1.34,1.34,0,0,1-.35,0l.61-.15v0Z" transform="translate(-415.15 -845.07)"/><path class="a" d="M604.42,1488.26h0l-.26.11a6.64,6.64,0,0,1-7.74-2.06l-.12-.14L592.5,1482l-.29-5.33-.71-13.17,1.9-5.11a1.38,1.38,0,0,0,.44.74l2.39,2.13a1.42,1.42,0,0,0,.65.32l2.42.48a1.43,1.43,0,0,0,1.69-1.56l.24.92a1.41,1.41,0,0,0,.34.62,1.48,1.48,0,0,0,.37.29,1.63,1.63,0,0,0,.69.17h.92l-.31,1.21a28.58,28.58,0,0,0,1,17.32l.35.91,1.19,3.1v0A2.51,2.51,0,0,1,604.42,1488.26Z" transform="translate(-415.15 -845.07)"/><path class="a" d="M591.5,1463.5l.71,13.17-3.77,1.22-3.79-2.09,0,0a1.79,1.79,0,0,1-.75-.86l-2.26-5.27-.46-1.08a2,2,0,0,1-.14-.54l-.91-9.63,1.62-6.23,2.55,4a1.39,1.39,0,0,0,.67.55l4.38,1.75.41.1h0l1.83.15a1.43,1.43,0,0,0,1.27-.58l.57.3Z" transform="translate(-415.15 -845.07)"/><path class="a" d="M581.13,1468.56a1.83,1.83,0,0,1-.32,2l-.51.57a1.84,1.84,0,0,1-2.68.08l-1.37-1.37a1.79,1.79,0,0,1-.43-.68l-2.57-7.17a1.91,1.91,0,0,1-.1-.53l-.41-8.16,2-5.9,1.64.55h0l3.7,1.26,1.49,2.76.13.24-1.62,6.23L581,1468A2,2,0,0,0,581.13,1468.56Z" transform="translate(-415.15 -845.07)"/><path class="a" d="M686.67,1508.83l-5.16-.69a4.61,4.61,0,0,1,1.23,0h0l3.09.53a1.81,1.81,0,0,0,.23,0Z" transform="translate(-415.15 -845.07)"/><path class="a" d="M706.13,1505.47l-3.36,1.58,3.28-1.55Z" transform="translate(-415.15 -845.07)"/><path class="a" d="M832.14,1364.07" transform="translate(-415.15 -845.07)"/><path class="a" d="M789.14,1507.39h0a91.9,91.9,0,0,0,21.67-35.69l10.31-31.46a91.93,91.93,0,0,0,3.15-12.56l9.87-55.61" transform="translate(-415.15 -845.07)"/><line class="a" x1="405.99" y1="511" x2="405.59" y2="510.99"/><path class="a" d="M781.14,1420.07l3.67-3.67a7.61,7.61,0,0,0,.91-1.06,8.12,8.12,0,0,0,.42-8.5l-6.75-12.31a1.47,1.47,0,0,1-.15-1l1.22-6.09a20.54,20.54,0,0,1,2.44-6.41l8.92-15.17a19.85,19.85,0,0,1,2.5-3.4,20.56,20.56,0,0,1,14.42-6.75h.14l10.85.28" transform="translate(-415.15 -845.07)"/><line class="a" x1="308.06" y1="589.06" x2="308.05" y2="589.07"/><path class="a" d="M676.52,846.1a1.45,1.45,0,0,1,1.16-.53l16.79.62a243.87,243.87,0,0,1,46.73,6.31l1.06.25a243.74,243.74,0,0,1,51.66,18.5l1.31.65A243.19,243.19,0,0,1,858,916.27q8.56,8.37,16.27,17.56t14.47,19.08l22.41,32.77a69,69,0,0,1,8.06,15.82l13.54,38a69.37,69.37,0,0,1,3.94,19.8l1.25,25.08a69.31,69.31,0,0,1-.17,9.45l-3.38,38.87c-.14,1.61-.34,3.21-.59,4.8l-6.15,39A69.52,69.52,0,0,1,916.19,1205a.76.76,0,0,1-.11.14l-1.49,1.7a22.06,22.06,0,0,0-5.45,14.51v18.22a36.83,36.83,0,0,1-1.09,8.87,17.25,17.25,0,0,1-7.12,10.11l-.79.52" transform="translate(-415.15 -845.07)"/><path class="a" d="M676.93,1472.92a1.4,1.4,0,0,1-.59.78l-2.69,1.71a1.87,1.87,0,0,1-.32.15l-4.8,1.6-8.19.51a16.23,16.23,0,0,1-5.28-2.08,16,16,0,0,1-4.21-3.79l-.64-.82-.34-.43-.13-.18v0a9.8,9.8,0,0,1-1.88-6.7l1.72-18.94.49-5.38.15-1.64v-.08a8.65,8.65,0,0,1,8.61-7.85l.62,0,7.6.54a8.68,8.68,0,0,1,4.46,1.63l1.92,1.39a8.68,8.68,0,0,1,3.36,5.05,8.6,8.6,0,0,0-.14,1.52v32.16A1.37,1.37,0,0,0,676.93,1472.92Z" transform="translate(-415.15 -845.07)"/><path class="a" d="M647.85,1463.65l-.21,2.31a3.91,3.91,0,0,0,.81,2.76l1.28,1.63v0l.13.18a1.58,1.58,0,0,1,.34,1v2.7a1.59,1.59,0,0,1-1.28,1.56l-2.65.54a16.88,16.88,0,0,1-3.39.34,17.23,17.23,0,0,1-3.93-.45h0a17.19,17.19,0,0,1-3.73-1.36l-2.44-1.22a1.57,1.57,0,0,1-.51-.41l-.52-.67a13.54,13.54,0,0,1-2.34-4.38,13.77,13.77,0,0,1-.61-4.87l1.09-19.14.55-9.6,0-.59,0-.48,2.45-3.18a4.6,4.6,0,0,1,1.55-1.29l2-1a4.55,4.55,0,0,1,5.33.9l8.38,8.72v0l-.15,1.64-.49,5.38Z" transform="translate(-415.15 -845.07)"/><line class="a" x1="214.74" y1="599.1" x2="214.64" y2="599.1"/><path class="a" d="M870.51,1353.39l3.63-1.32,26-26,9.42-12.31a29.82,29.82,0,0,0,5.1-10.39l.5-1.89a29.52,29.52,0,0,0,.12-14.85,9.54,9.54,0,0,0-1.45-5.06l-12.33-19.72a29.85,29.85,0,0,1-3.51-8.09l-2.85-10.69-4.27-17.92c-.49-2.05-.9-4.12-1.25-6.2l-.08-.5" transform="translate(-415.15 -845.07)"/><path class="a" d="M703.91,1469.92v0l-.13.18-.34.43-.64.82a16,16,0,0,1-4.21,3.79,16.23,16.23,0,0,1-5.28,2.08l-8.19-.51-4.8-1.6a1.87,1.87,0,0,1-.32-.15l-2.69-1.71a1.24,1.24,0,0,1-.37-.35,1.2,1.2,0,0,0,.07-.42v-32.16a9,9,0,0,0-.22-1.95,8.62,8.62,0,0,1,3.44-5.48l1.92-1.39a8.68,8.68,0,0,1,4.46-1.63l7.6-.54.62,0a8.65,8.65,0,0,1,8.61,7.85v.08l.15,1.64.57,6.23,1.64,18.09A9.8,9.8,0,0,1,703.91,1469.92Z" transform="translate(-415.15 -845.07)"/><path class="a" d="M676.78,1438.39a9,9,0,0,1,.22,1.95v32.16a1.2,1.2,0,0,1-.07.42,1.37,1.37,0,0,1-.29-.85v-32.16A8.6,8.6,0,0,1,676.78,1438.39Z" transform="translate(-415.15 -845.07)"/><path class="a" d="M685.11,1476.73l8.19.51A16,16,0,0,1,685.11,1476.73Z" transform="translate(-415.15 -845.07)"/><path class="a" d="M706,1465.53a3.91,3.91,0,0,1-.81,2.76l-1.28,1.63a9.8,9.8,0,0,0,1.88-6.7Z" transform="translate(-415.15 -845.07)"/><path class="a" d="M724.23,1467.75a13.54,13.54,0,0,1-2.34,4.38l-.52.67a1.45,1.45,0,0,1-.51.41l-2.44,1.22a17.19,17.19,0,0,1-3.73,1.36h0a17.23,17.23,0,0,1-3.93.45,16.88,16.88,0,0,1-3.39-.34l-2.65-.54a1.59,1.59,0,0,1-1.28-1.56v-2.7a1.58,1.58,0,0,1,.34-1l.13-.18v0l1.28-1.63a3.91,3.91,0,0,0,.81-2.76l-.21-2.31-1.64-18.09-.57-6.23-.15-1.64v0l8.38-8.72a4.55,4.55,0,0,1,5.33-.9l2,1a4.6,4.6,0,0,1,1.55,1.29l2.45,3.18,0,.48,0,.59.6,10.46,1,18.28A13.77,13.77,0,0,1,724.23,1467.75Z" transform="translate(-415.15 -845.07)"/><path class="a" d="M706,1465.53a3.91,3.91,0,0,1-.81,2.76l-1.28,1.63a9.8,9.8,0,0,0,1.88-6.7Z" transform="translate(-415.15 -845.07)"/><path class="a" d="M744.14,1434.24v16.17a1.36,1.36,0,0,1,0,.2L742.9,1459l-.19,1.26-.51,3.48a1.44,1.44,0,0,1-.3.68l-2.5,3.13a4.19,4.19,0,0,1-5.14,1.13l-7-3.47a1.34,1.34,0,0,1-.31-.22l-1.43-1.27a1.49,1.49,0,0,1-.47-1l-1.2-18.1-.69-10.47,0-.58a1.38,1.38,0,0,1,.24-.88l3.63-5.45.21-.3.25-.33,1.54-2a6.53,6.53,0,0,1,9-1.42l3.73,2.64a1.43,1.43,0,0,1,.57.83l.54,2.24.12.5,1.1,4.58A1.19,1.19,0,0,1,744.14,1434.24Z" transform="translate(-415.15 -845.07)"/><path class="a" d="M754.14,1442a.86.86,0,0,1,0,.16l-1,15.79,0,.21s0,0,0,0l-.43,1.69a1.13,1.13,0,0,0,0,.18l-.24.92a1.55,1.55,0,0,1-.08.23,1.16,1.16,0,0,1-.26.39,1.48,1.48,0,0,1-.37.29l-.11,0-.11,0a1.45,1.45,0,0,1-.47.08h-.92l-.61-.15-5.61-1.42h0a1.4,1.4,0,0,1-1-1.54l1.22-8.34a1.36,1.36,0,0,0,0-.2v-16.17a1.19,1.19,0,0,0,0-.33l-1.1-4.58-.12-.5,1.12-4.91a1.46,1.46,0,0,1,.7-.94,7,7,0,0,1,6.94.17l.86.53a1.41,1.41,0,0,1,.68,1.14l0,.68v.07l.07,1.26Z" transform="translate(-415.15 -845.07)"/><path class="a" d="M743.87,1460.5s0,0,.08,0l5.52,1.42.27.07a1.34,1.34,0,0,0,.35,0l-.61-.15Z" transform="translate(-415.15 -845.07)"/><path class="a" d="M754.34,1461.63l2.42-.48a1.43,1.43,0,0,0,.67-.34l2.37-2.11a1.38,1.38,0,0,0,.44-.74l.34-1.46,2.63-11.33,0-.2,1.29-15.7a1.35,1.35,0,0,0,0-.4l-.91-4.54-.31-1.53v0l0-.12a1.49,1.49,0,0,0-.61-.9,4.13,4.13,0,0,0-4.87.22l-2.25,1.8a1.44,1.44,0,0,1-.89.31,1.42,1.42,0,0,0-1.42,1.43v.07l.07,1.26.85,15.16a.86.86,0,0,1,0,.16l-1,15.79,0,.21s0,0,0,0l-.43,1.69a1.13,1.13,0,0,0,0,.18A1.43,1.43,0,0,0,754.34,1461.63Z" transform="translate(-415.15 -845.07)"/><path class="a" d="M760.81,1457.66a1.43,1.43,0,0,0,1.27.58l1.85-.15a1.45,1.45,0,0,0,.41-.1l4.38-1.75a1.44,1.44,0,0,0,.67-.55l2.55-4,.13-.24a.49.49,0,0,0,0-.11l1.84-5.94v0l1.13-3.64a1.52,1.52,0,0,0,.06-.42v-14.95a1.43,1.43,0,0,0-.15-.64L773.1,1422l-.28-.56a1.6,1.6,0,0,0-.66-.6l-1.57-.69a6.14,6.14,0,0,0-6.94,1.36,1.45,1.45,0,0,0-.39,1,1.07,1.07,0,0,0,0,.25v0l.31,1.53.91,4.54a1.35,1.35,0,0,1,0,.4l-1.29,15.7,0,.2-2.63,11.33A1.41,1.41,0,0,0,760.81,1457.66Z" transform="translate(-415.15 -845.07)"/><path class="a" d="M772.62,1421.07l.2.39.28.56,1.89,3.75a1.43,1.43,0,0,1,.15.64v14.95a1.52,1.52,0,0,1-.06.42l-1.13,3.64v0l3,1.89a1.11,1.11,0,0,0,.29.14h0a1.41,1.41,0,0,0,1.64-.55l2.05-3.09a16.27,16.27,0,0,0,2.73-9,16,16,0,0,0-.3-3.09l-2.09-10.84a1.44,1.44,0,0,0-.93-1.07l-3.31-1.15a1.45,1.45,0,0,0-1.29.18Z" transform="translate(-415.15 -845.07)"/><path class="a" d="M676.64,1480v18.87l4.2,8a2.52,2.52,0,0,0,1.92,1.3h0l2.84.48a2.43,2.43,0,0,0,1.91-.47l6.62-5.11,3.86-8.68a2.5,2.5,0,0,0,.19-.66l1.95-13.66-3-1.23-3.87-1.6a16,16,0,0,1-8.19-.51l-5.31.82Z" transform="translate(-415.15 -845.07)"/><path class="a" d="M693.3,1477.24a16,16,0,0,1-8.19-.51Z" transform="translate(-415.15 -845.07)"/><path class="a" d="M686.67,1508.83l-5.16-.69a4.61,4.61,0,0,1,1.23,0h0l2.84.48.21,0,.27,0Z" transform="translate(-415.15 -845.07)"/><path class="a" d="M714.15,1476.24v8.53l-1.92,11.77a2.46,2.46,0,0,1-.39,1l-2.58,3.88h0l-2.13,3.19a2.48,2.48,0,0,1-1,.87l-3.36,1.58a2.51,2.51,0,0,1-1.53.19l-4.77-1a2.46,2.46,0,0,1-1.88-1.71l-.45-1.51,3.86-8.68a2.5,2.5,0,0,0,.19-.66l1.5-10.47a.66.66,0,0,0,0-.14,3.37,3.37,0,0,0,0-.44,4.15,4.15,0,0,0-2.56-3.84l2.05-1.23a9.41,9.41,0,0,1,4.9-1.37Z" transform="translate(-415.15 -845.07)"/><path class="a" d="M734.26,1468.63l-.56,17.31a4.8,4.8,0,0,1-1.19,2.94,23.3,23.3,0,0,0-4.9,8.9l-.78,2.68-1.59,2-1.66,1.3-3.58,2.81a2.45,2.45,0,0,1-2.35.37l-3.36-1.2-.36-.13a2.54,2.54,0,0,1-.87-.54l-3.8-3.65h0l2.58-3.88a2.46,2.46,0,0,0,.39-1l1.92-11.77v-8.53l.53-.45h0a17.19,17.19,0,0,0,3.73-1.36l2.44-1.22a1.45,1.45,0,0,0,.51-.41l.52-.67a13.54,13.54,0,0,0,2.34-4.38l3.08-2.59Z" transform="translate(-415.15 -845.07)"/><path class="a" d="M749,1481.51l-1.19,3.1v0l-.87,2.26-.39,1a6.67,6.67,0,0,1-1.79,2.59l-4.81,4.25a2.48,2.48,0,0,1-1.35.6h0l-3.25.36h0a2.48,2.48,0,0,1-2.59-1.55l-.34-.83a2.66,2.66,0,0,1-.17-1.15l.22-2.49a2.46,2.46,0,0,1,.61-1.43h0a2.53,2.53,0,0,0,.62-1.57l0-.75.56-17.31a4.19,4.19,0,0,0,5.14-1.13l2.5-3.13a1.44,1.44,0,0,0,.3-.68l.51-3.48,1.14.28h0s0,0,.08,0l5.52,1.42.27.07a1.34,1.34,0,0,0,.35,0A32.52,32.52,0,0,1,749,1481.51Z" transform="translate(-415.15 -845.07)"/><path class="a" d="M743.87,1460.5s0,0,.08,0l5.52,1.42.27.07a1.34,1.34,0,0,0,.35,0l-.61-.15Z" transform="translate(-415.15 -845.07)"/><path class="a" d="M749.74,1462a1.34,1.34,0,0,0,.35,0l-.61-.15v0Z" transform="translate(-415.15 -845.07)"/><path class="a" d="M762.14,1463.07l-.71,13.17-.29,5.33-3.79,4.18-.12.14a6.63,6.63,0,0,1-7.74,2l-.26-.11h0a2.5,2.5,0,0,1-1.4-3.19v0l1.19-3.1.35-.91a28.58,28.58,0,0,0,1-17.32l-.31-1.21H751a1.63,1.63,0,0,0,.69-.17,1.48,1.48,0,0,0,.37-.29,1.16,1.16,0,0,0,.26-.39,1.55,1.55,0,0,0,.08-.23l.24-.92a1.43,1.43,0,0,0,1.69,1.56l2.42-.48a1.42,1.42,0,0,0,.51-.21l.14-.11,2.39-2.13a1.38,1.38,0,0,0,.44-.74Z" transform="translate(-415.15 -845.07)"/><path class="a" d="M773.56,1458l-.91,9.63a2.12,2.12,0,0,1-.14.55l-.46,1.07-2.26,5.27a1.79,1.79,0,0,1-.75.86l0,0-3.79,2.09-3.77-1.22.71-13.17-1.9-5.11.57-.3a1.43,1.43,0,0,0,1.27.58l1.83-.14H764l.37-.09,4.38-1.75a1.39,1.39,0,0,0,.67-.55l2.55-4Z" transform="translate(-415.15 -845.07)"/><path class="a" d="M780.9,1452.82l-.41,8.16a1.91,1.91,0,0,1-.1.53l-2.57,7.17a1.91,1.91,0,0,1-.43.69l-1.37,1.36a1.84,1.84,0,0,1-2.68-.07l-.51-.57a1.84,1.84,0,0,1-.32-1.95,2.12,2.12,0,0,0,.14-.55l.91-9.63-1.62-6.23.13-.24,1.49-2.76,3.7-1.26h0l1.64-.55Z" transform="translate(-415.15 -845.07)"/><path class="a" d="M889.62,1219l-1.07-.55A44.7,44.7,0,0,1,866,1190.5h0s1-15.62-3.06-38.47a53.55,53.55,0,0,1,3.21-29.92,262.51,262.51,0,0,0,18-69.79" transform="translate(-415.15 -845.07)"/><path class="a" d="M500.68,1195.72v14.9a16.83,16.83,0,0,0,1,5.58l.91,2.59a16.86,16.86,0,0,1,.95,5.58V1247a16.7,16.7,0,0,0,.77,5l1.73,5.53a16.78,16.78,0,0,0,10.38,10.8l9,3.22a16.83,16.83,0,0,0,3.63.86l22,2.67a16.71,16.71,0,0,0,6.14-.39l41.5-10.48a16.65,16.65,0,0,0,4.35-1.77l18.23-10.63a16.62,16.62,0,0,0,4-3.19L636,1236.85a16.75,16.75,0,0,0,4.24-9.09l1.93-14.42a17,17,0,0,0-.2-5.65L639.49,1196l-1.6-8.32a16.83,16.83,0,0,0-7.64-11.1l-1.5-.93a16.81,16.81,0,0,1-4.48-4l-6.49-8.47a16.53,16.53,0,0,0-2.94-3l-8.45-6.66a16.78,16.78,0,0,0-12.21-3.5l-19.66,2.14a16.79,16.79,0,0,0-8.25,3.25l-3.48,2.61a16.8,16.8,0,0,1-7.34,3.13L544.29,1163a16.82,16.82,0,0,0-4.39,1.36l-17.29,8.07a15.56,15.56,0,0,0-2.14,1.2l-12.24,8.07a16.94,16.94,0,0,0-4.59,4.5h0A16.85,16.85,0,0,0,500.68,1195.72Z" transform="translate(-415.15 -845.07)"/><path class="a" d="M503.64,1186.2h-4.21a12.93,12.93,0,0,1-11.41-6.85h0a12.89,12.89,0,0,1-1.52-6.08v-9.69a12.83,12.83,0,0,1,.9-4.74l2.1-5.34,2-15-2-34-6.73-16.82a71.18,71.18,0,0,1-4.44-16.92l-2.83-21.26-5.94-34a70.26,70.26,0,0,1-1.06-12.19v-2.87a56.31,56.31,0,0,1,4.23-21.4h0A35.36,35.36,0,0,1,488.5,961.5h0l.77-3.46a14.5,14.5,0,0,1,5.9-8.77l2.87-2a14.52,14.52,0,0,0,4.26-4.6h0a14.48,14.48,0,0,1,12.51-7.18h4.46" transform="translate(-415.15 -845.07)"/><line class="a" x1="71.35" y1="358.43" x2="67.35" y2="367.49"/><path class="a" d="M490.55,1212.56h0a19.51,19.51,0,0,0-3.34,13l2.72,27.28a19.52,19.52,0,0,0,4.73,10.93l6.58,7.52a19.48,19.48,0,0,0,8.25,5.59l12.87,4.51a19.5,19.5,0,0,0,6.47,1.1h24.81a27,27,0,0,0,5.53-.57l12.31-2.55" transform="translate(-415.15 -845.07)"/><path class="a" d="M514.76,1362.17v-.57a58.4,58.4,0,0,0-2.26-16.1h0" transform="translate(-415.15 -845.07)"/><path class="a" d="M514.76,1339.63l-1-3.66a7.71,7.71,0,0,1,1.8-7.42l2.3-2.45a7.71,7.71,0,0,0,1.28-8.74h0a7.73,7.73,0,0,1,.67-8l.51-.71a7.74,7.74,0,0,1,3.14-2.53l13.16-5.78a7.75,7.75,0,0,0,3.16-2.57h0a7.62,7.62,0,0,1,6.19-3.22l8,0a7.6,7.6,0,0,0,4.61-1.57l5-3.8a7.83,7.83,0,0,1,2.17-1.16l14.81-5.07a7.78,7.78,0,0,1,2.49-.41H593.4" transform="translate(-415.15 -845.07)"/><path class="a" d="M586.74,1267.21l-1.3,1.82A16,16,0,0,0,583,1282.5h0" transform="translate(-415.15 -845.07)"/><path class="a" d="M630.25,1176.62s2.55,4,15.9,4,16.21-4.92,21.78,0,10.47,5.32,18,5.62,8.23-2.3,12.39,0,6.49,4.3,11.82,4.3h13s1.33-3.21,4.33-9.1,11.28-13.15,25.14-18,22.66-3.13,28.26,0,9.55,1.88,18.57,4.5,38.52,15,40.77,18.32,10.4,14.36,11.83,21.83-3.57,31.53-5.07,39.5-11.44,35.82-31,38.39-21.15,1.43-32.34,0-10.39-10-28.79-18.71c-12.63-6-19.89-9.66-23.84-15.77-1.83-2.81-2.4-5.33-3.56-10.35-5.06-21.92,2.31-34.21-6-45.59a23.36,23.36,0,0,0-5-5" transform="translate(-415.15 -845.07)"/><path class="a" d="M721.5,1195.5a18.87,18.87,0,0,1-3.45,17.06" transform="translate(-415.15 -845.07)"/><path class="a" d="M718.05,1221.38s-3.45,13,0,18.58,13,11.48,13,11.48" transform="translate(-415.15 -845.07)"/><line class="a" x1="283.19" y1="341.13" x2="322.62" y2="325.65"/><line class="a" x1="351.75" y1="315.3" x2="365.75" y2="310.42"/><path class="a" d="M849.26,1200.54s6.64-2,8.44-5,8.26-5,8.26-5" transform="translate(-415.15 -845.07)"/><line class="a" x1="244.35" y1="315.27" x2="252.78" y2="335.51"/><path class="a" d="M709.26,1181.91s-9.08,4.51-10.92-3.45-5.56-16.21-4.2-18.09,3.22-10.54,9.29-16.7,25.07-11.17,25.07-11.17" transform="translate(-415.15 -845.07)"/><line class="a" x1="309.71" y1="282.27" x2="335.94" y2="282.27"/><line class="a" x1="322.82" y1="276.07" x2="352.69" y2="276.07"/><line class="a" x1="337.76" y1="269.88" x2="365.75" y2="269.88"/><path class="a" d="M523.5,929.5c-3-4-8-8.79,0-13.9s18-11.1,18-11.1" transform="translate(-415.15 -845.07)"/><line class="a" x1="115.19" y1="59.43" x2="130.93" y2="51.39"/><line class="a" x1="126.35" y1="48.01" x2="143.35" y2="42.43"/><path class="a" d="M804.5,1298.5s21.28-2.09,27.64-5,20.18-28.72,20.18-28.72" transform="translate(-415.15 -845.07)"/><path class="a" d="M789.14,1298.5a11.09,11.09,0,0,0,10.33,7.91c2,.09,12.17,0,12.17,0l12,3.32a9.81,9.81,0,0,1,6.56,6h0a8.16,8.16,0,0,0,7.64,5.31h0a8.16,8.16,0,0,1,7.72,5.5l1.34,3.88a13.72,13.72,0,0,1-2.06,12.79h0a5.36,5.36,0,0,0-.82,5l1.9,5.63,1.2,7.24" transform="translate(-415.15 -845.07)"/><path class="a" d="M667,1190.5l-4.63,9.09a18.14,18.14,0,0,0-2,8.3v5.19a18.33,18.33,0,0,1-3.42,10.65h0a18.28,18.28,0,0,0-3.42,10.64v8.31a18.32,18.32,0,0,1-2.4,9.06l-4.36,7.63a34.05,34.05,0,0,0-4.47,16.87v2.93a34.14,34.14,0,0,1-2.58,13l-1.62,3.92a57,57,0,0,0-3.57,31l3,18.44,6.86,15.58" transform="translate(-415.15 -845.07)"/><path class="a" d="M650.36,1364.5l14.89,7.57,4.21,1.56a9.41,9.41,0,0,1,6.12,7.91l1.42,14.4" transform="translate(-415.15 -845.07)"/><path class="a" d="M677,1368.07l-18.64-7-4.79-4.58-7.67-15.85a55,55,0,0,1-4.89-15.73h0a55.13,55.13,0,0,1,4.46-31.5l2.75-6,.8-7.55A37.46,37.46,0,0,1,659.16,1258l6.24-6.54,1-3.26a3.61,3.61,0,0,0-.87-3.54h0a3.58,3.58,0,0,1-.62-4.17l.88-1.7a3.6,3.6,0,0,1,5.63-1l3.61,3.31,4.5-1.59v-4.89l4.64,2.23a5,5,0,0,0,2.86.46h0a5.08,5.08,0,0,1,5.66,5.91l-2,11.63a7.21,7.21,0,0,0,2.62,6.9h0a29.52,29.52,0,0,1,11,25.38l-.72,9.29a5.08,5.08,0,0,0,1.2,3.69h0a34.41,34.41,0,0,1,8.08,25.32l-1.68,19.28-18.46,19.8-6.2,3.57Z" transform="translate(-415.15 -845.07)"/><path class="a" d="M650.21,1349.56s6.29.94,10.29-2.06,7-4,9-10,0-9.14,0-13.07,7.86-17.18,7.43-20.56-1.43-10.27-1.93-11.82c-.25-.76-.8-3.29-1.3-5.67a21.17,21.17,0,0,1,.12-9.37l.42-1.79a12.68,12.68,0,0,0-.1-6.3h0a24.62,24.62,0,0,1-.78-8.5l1.64-19.33" transform="translate(-415.15 -845.07)"/><path class="a" d="M692.71,1364.5l.59-5.25a17.75,17.75,0,0,0-7.8-16.75h0l-3.19-7.06a16.33,16.33,0,0,1-.73-11.57l3.54-11.5a20.49,20.49,0,0,0-.3-12.95l-3.21-9a16.24,16.24,0,0,1-.17-10.42l1.6-5a14.54,14.54,0,0,0,0-9.06h0a18.86,18.86,0,0,1-.7-9.13l.71-4.22,4-15.33" transform="translate(-415.15 -845.07)"/><line class="a" x1="256.35" y1="506.43" x2="265.51" y2="502.16"/><line class="a" x1="256.35" y1="509.48" x2="263.48" y2="506.43"/><polyline class="a" points="256.35 513.14 259.91 511.1 256.35 520.94"/><line class="a" x1="241.35" y1="570.43" x2="239.35" y2="556.43"/><line class="a" x1="241.35" y1="554.96" x2="240.35" y2="546.65"/><path class="a" d="M657.51,1391.72l.68-3.6a5.87,5.87,0,0,1,1.41-2.84h0a15.67,15.67,0,0,0,4-10.33l0-3.67" transform="translate(-415.15 -845.07)"/><line class="a" x1="262.77" y1="554.96" x2="264.88" y2="563.43"/><line class="a" x1="262.77" y1="564.81" x2="263.48" y2="571.99"/><line class="a" x1="261.49" y1="574.1" x2="263.48" y2="580.3"/><line class="a" x1="218.6" y1="568.4" x2="218.6" y2="559.19"/><line class="a" x1="338.99" y1="568.4" x2="334.32" y2="559.19"/><path class="a" d="M769.85,1491.76l-17.09,8.72a7.5,7.5,0,0,1-2,.68h0a23.18,23.18,0,0,0-11.56,5.78l-1.72,1.6" transform="translate(-415.15 -845.07)"/><path class="a" d="M624.85,1509.26l7.21,4.69a6.84,6.84,0,0,0,3.7,1.09h2.42a6.81,6.81,0,0,1,4.32,1.55h0a6.81,6.81,0,0,0,4.32,1.55h11.57a6.62,6.62,0,0,1,2.16.36l1.08.36a6.82,6.82,0,0,0,4.12.07l4.62-1.39a6.79,6.79,0,0,1,3.55-.09l3,.74a7.27,7.27,0,0,0,2,.18l9-.49a6,6,0,0,0,.94-.11l4.28-.84a6.78,6.78,0,0,1,2-.09l6,.62a5.48,5.48,0,0,0,.7,0h7a6.76,6.76,0,0,0,3.06-.73l4.7-2.37" transform="translate(-415.15 -845.07)"/><path class="a" d="M627.5,1239.5l-18.86-10.77a1.57,1.57,0,0,1-.61-.64l-10.13-19.9a1.45,1.45,0,0,0-.19-.29l-12.77-15.1a1.46,1.46,0,0,0-.89-.52l-33-6a1.75,1.75,0,0,0-.56,0l-28,5.23a1.53,1.53,0,0,0-.67,2.7l31.94,25.51a1.54,1.54,0,0,0,.79.33l35.13,3.65a1.53,1.53,0,0,1,1.22,2.19l-4,8.22a1.49,1.49,0,0,1-.79.75l-18.7,7.67-13,6a1.57,1.57,0,0,1-.64.14H539.57a1.53,1.53,0,0,1-.6-.12h0a1.53,1.53,0,0,0-1.83,2.31l3.27,4.5a2.09,2.09,0,0,0,.2.22l3.1,2.9a1.52,1.52,0,0,1,.46,1.4l-.64,3.46a1.33,1.33,0,0,0,0,.28v1.49a1.53,1.53,0,0,0,2.54,1.15l5.46-4.78,10-9,4.91-4.56a1.53,1.53,0,0,1,1-.41h1.67a1.53,1.53,0,0,1,1.4,2.15l-2.85,6.43a1.62,1.62,0,0,0-.12.81l0,.25a1.53,1.53,0,0,0,3,.24l.79-2.69a1.5,1.5,0,0,1,.42-.68l3.07-2.92a1.54,1.54,0,0,1,1.5-.36l5.56,1.71a1.48,1.48,0,0,1,.82.61l3.24,4.83a1.53,1.53,0,0,0,2,.5l3.33-1.8a1.54,1.54,0,0,0,.36-.27l3.78-3.78a.69.69,0,0,1,.13-.11l5.86-4.66a1.51,1.51,0,0,1,.75-.31l7.22-1h9.1" transform="translate(-415.15 -845.07)"/><path class="a" d="M789.14,1282.5l-2.77-7.64-14.26-15.36-9.61-5-14-7-13.56-10.2-3.88-5-2.56-5.82,2.56-7.49L741.29,1204l15.34-13.13a2.81,2.81,0,0,1,1-.58l22.47-6.9a3,3,0,0,1,1.54-.05l15.94,3.78a2.94,2.94,0,0,1,2.2,2.32l1.57,8.46a2.92,2.92,0,0,1,0,1.14l-1,4.67a2.93,2.93,0,0,1-4.62,1.75l-5.71-4.25a2.94,2.94,0,0,0-2.11-.56l-26,3.21a3,3,0,0,0-1.9,1l-11.27,13.53,21.2,2.9a2.69,2.69,0,0,0,.4,0H782.2a3,3,0,0,1,1.48.4l7.59,4.45a2.87,2.87,0,0,1,.64.51h0a2.93,2.93,0,0,1-1.48,4.89l-13.29,2.95-.3.08-11.84,4-16.54-4L738,1232.84" transform="translate(-415.15 -845.07)"/></svg>